<svg width="24" height="24" viewBox="0 0 24 24" fill="none" xmlns="http://www.w3.org/2000/svg">
<path d="M9.8774 14.4562L10.2016 14.4576C15.0178 14.4993 17.7544 15.4875 17.7544 18.1362C17.7544 20.7225 15.1484 21.7088 10.5209 21.7897L9.8774 21.7952C4.86002 21.7952 2.0004 20.8227 2.0004 18.1152C2.0004 15.4107 4.84739 14.4562 9.8774 14.4562ZM9.8774 15.9562L9.54068 15.9578C5.55376 15.996 3.5004 16.7221 3.5004 18.1152C3.5004 19.5554 5.67593 20.2952 9.8774 20.2952C14.0842 20.2952 16.2544 19.5674 16.2544 18.1362C16.2544 16.696 14.0789 15.9562 9.8774 15.9562ZM19.2041 7.9191C19.5838 7.9191 19.8976 8.20125 19.9473 8.56733L19.9541 8.6691L19.9534 9.9239L21.25 9.924C21.6642 9.924 22 10.2598 22 10.674C22 11.0537 21.7178 11.3675 21.3518 11.4172L21.25 11.424L19.9534 11.4239L19.9541 12.6791C19.9541 13.0933 19.6183 13.4291 19.2041 13.4291C18.8244 13.4291 18.5106 13.1469 18.4609 12.7809L18.4541 12.6791L18.4534 11.4239L17.16 11.424C16.7458 11.424 16.41 11.0882 16.41 10.674C16.41 10.2943 16.6922 9.98051 17.0582 9.93085L17.16 9.924L18.4534 9.9239L18.4541 8.6691C18.4541 8.25489 18.7899 7.9191 19.2041 7.9191ZM9.8774 1.9999C12.8276 1.9999 15.1954 4.36769 15.1954 7.3179C15.1954 10.2674 12.8273 12.6359 9.8774 12.6359C6.92818 12.6359 4.5594 10.2671 4.5594 7.3179C4.5594 4.36801 6.92786 1.9999 9.8774 1.9999ZM9.8774 3.4999C7.75624 3.4999 6.0594 5.19649 6.0594 7.3179C6.0594 9.43869 7.75661 11.1359 9.8774 11.1359C11.9988 11.1359 13.6954 9.43906 13.6954 7.3179C13.6954 5.19611 11.9992 3.4999 9.8774 3.4999Z" fill="#666666"/>
</svg>
