<svg width="24" height="24" viewBox="0 0 24 24" fill="none" xmlns="http://www.w3.org/2000/svg">
<path d="M15.7326 2C16.0831 2 16.3728 2.26247 16.4186 2.603L16.4249 2.69767L16.425 3.48626C19.2681 3.68121 21.009 5.51888 21 8.48579V16.9744C21 20.1193 19.0453 22 15.9036 22H8.09625C4.95834 22 3 20.0872 3 16.9041V8.48579C3 5.51995 4.74651 3.68177 7.58344 3.48635L7.58353 2.69767C7.58353 2.31236 7.89348 2 8.27583 2C8.62632 2 8.91598 2.26247 8.96182 2.603L8.96814 2.69767L8.968 3.469H15.04L15.0403 2.69767C15.0403 2.31236 15.3503 2 15.7326 2ZM19.615 10.283H4.384L4.38461 16.9041C4.38461 19.2292 5.62916 20.5198 7.86897 20.6006L8.09625 20.6047H15.9036C18.2946 20.6047 19.6154 19.3338 19.6154 16.9744L19.615 10.283ZM16.1089 16.136C16.4912 16.136 16.8012 16.4484 16.8012 16.8337C16.8012 17.1869 16.5407 17.4788 16.2028 17.525L16.1089 17.5314C15.718 17.5314 15.408 17.219 15.408 16.8337C15.408 16.4805 15.6685 16.1886 16.0064 16.1424L16.1089 16.136ZM12.0128 16.136C12.3951 16.136 12.7051 16.4484 12.7051 16.8337C12.7051 17.1869 12.4446 17.4788 12.1067 17.525L12.0128 17.5314C11.6219 17.5314 11.3119 17.219 11.3119 16.8337C11.3119 16.4805 11.5724 16.1886 11.9103 16.1424L12.0128 16.136ZM7.90812 16.136C8.29047 16.136 8.60043 16.4484 8.60043 16.8337C8.60043 17.1869 8.33998 17.4788 8.00207 17.525L7.89957 17.5314C7.51722 17.5314 7.20727 17.219 7.20727 16.8337C7.20727 16.4805 7.46772 16.1886 7.80563 16.1424L7.90812 16.136ZM16.1089 12.5206C16.4912 12.5206 16.8012 12.833 16.8012 13.2183C16.8012 13.5715 16.5407 13.8634 16.2028 13.9096L16.1089 13.916C15.718 13.916 15.408 13.6036 15.408 13.2183C15.408 12.8651 15.6685 12.5732 16.0064 12.527L16.1089 12.5206ZM12.0128 12.5206C12.3951 12.5206 12.7051 12.833 12.7051 13.2183C12.7051 13.5715 12.4446 13.8634 12.1067 13.9096L12.0128 13.916C11.6219 13.916 11.3119 13.6036 11.3119 13.2183C11.3119 12.8651 11.5724 12.5732 11.9103 12.527L12.0128 12.5206ZM7.90812 12.5206C8.29047 12.5206 8.60043 12.833 8.60043 13.2183C8.60043 13.5715 8.33998 13.8634 8.00207 13.9096L7.89957 13.916C7.51722 13.916 7.20727 13.6036 7.20727 13.2183C7.20727 12.8651 7.46772 12.5732 7.80563 12.527L7.90812 12.5206ZM15.04 4.864H8.968L8.96814 5.75887C8.96814 6.14418 8.65818 6.45654 8.27583 6.45654C7.92535 6.45654 7.63569 6.19407 7.58985 5.85354L7.58353 5.75887L7.58255 4.88521C5.51889 5.05837 4.38461 6.3066 4.38461 8.48579L4.384 8.887H19.615L19.6154 8.48365C19.622 6.30275 18.4935 5.05711 16.4249 4.88499L16.4249 5.75887C16.4249 6.14418 16.115 6.45654 15.7326 6.45654C15.3821 6.45654 15.0925 6.19407 15.0466 5.85354L15.0403 5.75887L15.04 4.864Z" fill="#666666"/>
</svg>
