<svg width="24" height="24" viewBox="0 0 24 24" fill="none" xmlns="http://www.w3.org/2000/svg">
<path d="M15.8627 2C19.0587 2 20.9697 3.92 20.9997 7.132V16.791C20.9997 20.048 19.0837 22 15.8627 22H8.13769C7.72569 22 7.33469 21.968 6.96669 21.905L6.74869 21.864C4.37769 21.371 2.99969 19.555 2.99969 16.791V7.209C2.99969 6.875 3.01969 6.555 3.05969 6.249C3.40869 3.564 5.25369 2 8.13769 2H15.8627ZM15.8537 3.457H8.13769C5.68169 3.457 4.43669 4.72 4.43669 7.209V16.791C4.43669 19.28 5.68169 20.543 8.13769 20.543H15.8537C18.3087 20.543 19.5457 19.28 19.5457 16.791V7.209C19.5457 4.72 18.3087 3.457 15.8537 3.457ZM15.5927 15.51C15.9867 15.51 16.3057 15.834 16.3057 16.234C16.3057 16.634 15.9867 16.958 15.5927 16.958H8.38169C7.98769 16.958 7.66769 16.634 7.66769 16.234C7.66769 15.834 7.98769 15.51 8.38169 15.51H15.5927ZM15.5927 11.271C15.8677 11.241 16.1367 11.373 16.2837 11.61C16.4307 11.849 16.4307 12.151 16.2837 12.39C16.1367 12.627 15.8677 12.759 15.5927 12.729H8.38169C8.01569 12.687 7.73869 12.374 7.73869 12C7.73869 11.626 8.01569 11.312 8.38169 11.271H15.5927ZM11.1337 7.042C11.4997 7.083 11.7767 7.397 11.7767 7.771C11.7767 8.144 11.4997 8.458 11.1337 8.499H8.39069C8.02369 8.458 7.74669 8.144 7.74669 7.771C7.74669 7.397 8.02369 7.083 8.39069 7.042H11.1337Z" fill="#666666"/>
</svg>
