<svg width="24" height="24" viewBox="0 0 24 24" fill="none" xmlns="http://www.w3.org/2000/svg">
<path d="M8.2798 2.50052C8.9098 2.51968 9.5198 2.62968 10.1108 2.83068H10.1698C10.2098 2.84968 10.2398 2.87068 10.2598 2.88968C10.4808 2.96068 10.6898 3.04068 10.8898 3.15068L11.2698 3.32068C11.4198 3.40068 11.5998 3.54968 11.6998 3.61068C11.7998 3.66968 11.9098 3.73068 11.9998 3.79968C13.1108 2.95068 14.4598 2.49068 15.8498 2.50052C16.4808 2.50052 17.1108 2.58968 17.7098 2.79068C21.4008 3.99068 22.7308 8.04068 21.6198 11.5807C20.9898 13.3897 19.9598 15.0407 18.6108 16.3897C16.6798 18.2597 14.5608 19.9197 12.2798 21.3497L12.0298 21.5007L11.7698 21.3397C9.4808 19.9197 7.3498 18.2597 5.4008 16.3797C4.0608 15.0307 3.0298 13.3897 2.3898 11.5807C1.2598 8.04068 2.5898 3.99068 6.3208 2.76968C6.6108 2.66968 6.9098 2.59968 7.2098 2.56068H7.3298C7.6108 2.51968 7.8898 2.50052 8.1698 2.50052H8.2798ZM17.1898 5.66068C16.7798 5.51968 16.3298 5.74068 16.1798 6.16068C16.0398 6.58068 16.2598 7.04068 16.6798 7.18968C17.3208 7.42968 17.7498 8.06068 17.7498 8.75968V8.79068C17.7308 9.01968 17.7998 9.24068 17.9398 9.41068C18.0798 9.58068 18.2898 9.67968 18.5098 9.70068C18.9198 9.68968 19.2698 9.36068 19.2998 8.93968V8.82068C19.3298 7.41968 18.4808 6.15068 17.1898 5.66068Z" fill="#FF1930"/>
</svg>
