<svg width="32" height="32" viewBox="0 0 32 32" fill="none" xmlns="http://www.w3.org/2000/svg">
<path d="M28.3261 19.6359C28.8768 19.6359 29.3235 20.0825 29.3235 20.6332C29.3235 20.6495 29.2654 21.3839 29.2065 22.1578L29.1716 22.6215C29.1374 23.0791 29.107 23.5021 29.0928 23.7439C29.0168 24.9945 28.5315 26.2705 27.7941 27.1585C26.7675 28.3959 25.4595 28.9745 23.6808 28.9785C23.6502 28.9786 23.6161 28.9786 23.5786 28.9787L21.8311 28.9799C21.7427 28.98 21.6521 28.98 21.5594 28.9801H10.5068C10.4141 28.98 10.3235 28.98 10.2351 28.9799L8.4882 28.9787L8.38612 28.9785C6.60612 28.9745 5.29812 28.3959 4.27146 27.1572C3.53546 26.2705 3.04879 24.9945 2.97412 23.7439C2.95946 23.5021 2.92879 23.0791 2.89442 22.6215L2.85927 22.1578C2.80015 21.3839 2.74212 20.6495 2.74212 20.6332C2.74212 20.0825 3.18879 19.6359 3.73946 19.6359C4.26346 19.6359 4.68079 20.0439 4.72079 20.5559C4.72079 20.5559 4.92612 22.8879 4.97012 23.6239C5.01946 24.4385 5.35012 25.3252 5.81146 25.8799C6.46479 26.6679 7.18746 26.9759 8.38879 26.9785C8.42899 26.9786 8.47533 26.9787 8.52753 26.9787L10.7504 26.9799C10.877 26.9799 11.0071 26.98 11.1403 26.98H20.9245C21.0578 26.98 21.1879 26.9799 21.3145 26.9799L23.538 26.9787L23.6768 26.9785C24.8795 26.9759 25.6021 26.6679 26.2541 25.8812C26.7168 25.3252 27.0475 24.4385 27.0968 23.6239C27.1395 22.8879 27.3448 20.5559 27.3448 20.5559C27.3848 20.0439 27.8021 19.6359 28.3261 19.6359ZM15.9935 19.5121C16.5455 19.5121 16.9935 19.9601 16.9935 20.5121V22.2375C16.9935 22.7895 16.5455 23.2375 15.9935 23.2375C15.4415 23.2375 14.9935 22.7895 14.9935 22.2375V20.5121C14.9935 19.9601 15.4415 19.5121 15.9935 19.5121ZM17.7147 2.66666C19.7173 2.66666 21.3587 4.17332 21.608 6.10799H24.244C27.0427 6.10799 29.32 8.38532 29.32 11.1853V15.808C29.32 16.144 29.152 16.456 28.872 16.6427C26.1227 18.4613 22.86 19.6733 19.4347 20.148C19.3893 20.1547 19.3427 20.1573 19.2973 20.1573C18.8453 20.1573 18.4427 19.8507 18.328 19.4027C18.0587 18.3413 17.096 17.6 15.9867 17.6C14.8653 17.6 13.912 18.3253 13.6147 19.408C13.4813 19.8933 13.0187 20.2053 12.512 20.1347C9.11066 19.66 5.86132 18.4533 3.11599 16.6427C2.83466 16.4573 2.66666 16.144 2.66666 15.808V11.1853C2.66666 8.38532 4.94932 6.10799 7.75599 6.10799H10.3787C10.6293 4.17199 12.2693 2.66666 14.272 2.66666H17.7147ZM24.244 8.10799H7.75599C6.05332 8.10799 4.66666 9.48932 4.66666 11.1853V15.2613C6.85599 16.6173 9.37199 17.5667 12.0147 18.032C12.7667 16.564 14.2933 15.6 15.9867 15.6C17.6947 15.6 19.2147 16.568 19.9453 18.044C22.604 17.576 25.1293 16.6227 27.32 15.2613V11.1853C27.32 9.48932 25.94 8.10799 24.244 8.10799ZM17.7147 4.66666H14.272C13.3747 4.66666 12.6253 5.28132 12.4013 6.10799H19.584C19.3613 5.28132 18.6107 4.66666 17.7147 4.66666Z" fill="#666666"/>
</svg>
