<svg width="32" height="32" viewBox="0 0 32 32" fill="none" xmlns="http://www.w3.org/2000/svg">
<path d="M16.0773 2.66676C21.6153 2.70768 26.5537 6.15736 28.4901 11.3385C30.4266 16.5201 28.9582 22.3575 24.7996 26.0105C20.6416 29.663 14.6572 30.3738 9.75717 27.7973L9.69609 27.7759C9.68656 27.7704 9.68503 27.7656 9.68298 27.7593L8.77294 27.2443C8.58759 27.1684 8.3822 27.1561 8.2568 27.1878C7.31079 27.5279 6.34396 27.8072 5.36222 28.024L5.18227 28.0457C4.10153 28.0697 3.557 27.3685 3.557 26.3479L3.58305 26.1293C3.82847 25.1143 4.13605 24.1153 4.4861 23.1902C4.5404 23.0151 4.52232 22.8256 4.42862 22.65L4.18353 22.1722C2.01717 18.0302 2.18054 13.0581 4.61412 9.06679C7.04738 5.076 11.3951 2.64816 16.0773 2.66676ZM16.0645 4.52616L15.69 4.53203C11.8066 4.64314 8.23116 6.70827 6.2026 10.0353C4.10889 13.4692 3.96835 17.7465 5.83549 21.3165L6.07672 21.787C6.39757 22.3874 6.46469 23.091 6.24518 23.7935C5.90404 24.6995 5.61891 25.6256 5.3914 26.5665L5.51732 26.076L6.04363 25.9388C6.22429 25.889 6.4054 25.8366 6.58745 25.7814L7.13695 25.6073L7.6951 25.4156C8.28471 25.2533 8.91159 25.2908 9.52913 25.5454C9.65876 25.6078 9.8196 25.6946 10.0224 25.8092L10.5854 26.1323C10.595 26.1349 10.6033 26.1372 10.6097 26.139L10.5933 26.1368L10.9769 26.329C15.0109 28.2768 19.8168 27.704 23.2782 24.8621L23.5718 24.6128C27.1501 21.4694 28.4133 16.4476 26.7473 11.9898C25.0811 7.53148 20.8308 4.56241 16.0645 4.52616ZM10.1546 14.4794C10.9947 14.4794 11.6764 15.16 11.6764 16.0003C11.6764 16.8405 10.9947 17.5211 10.1546 17.5211C9.31447 17.5211 8.63279 16.8405 8.63279 16.0003C8.63279 15.16 9.31447 14.4794 10.1546 14.4794ZM16.0704 14.4794C16.9106 14.4794 17.5923 15.16 17.5923 16.0003C17.5923 16.8405 16.9106 17.5211 16.0704 17.5211C15.2303 17.5211 14.5486 16.8405 14.5486 16.0003C14.5486 15.16 15.2303 14.4794 16.0704 14.4794ZM21.9863 14.4794C22.8264 14.4794 23.5081 15.16 23.5081 16.0003C23.5081 16.8405 22.8264 17.5211 21.9863 17.5211C21.1461 17.5211 20.4645 16.8405 20.4645 16.0003C20.4645 15.16 21.1461 14.4794 21.9863 14.4794Z" fill="#666666"/>
</svg>
