<svg width="32" height="32" viewBox="0 0 32 32" fill="none" xmlns="http://www.w3.org/2000/svg">
<path d="M15.917 18.6127L16.3235 18.6146C21.8207 18.6663 24.9446 19.7876 24.9446 22.8895C24.9446 25.9185 21.9585 27.0782 16.7196 27.1818L15.917 27.1895C10.1669 27.1895 6.88946 26.0904 6.88946 22.9127C6.88946 19.7315 10.18 18.6127 15.917 18.6127ZM15.917 20.6127C11.2681 20.6127 8.88946 21.4214 8.88946 22.9127C8.88946 24.3936 11.2628 25.1895 15.917 25.1895C20.5646 25.1895 22.9446 24.3801 22.9446 22.8895C22.9446 21.4088 20.5705 20.6127 15.917 20.6127ZM25.3076 17.782C26.0033 17.83 26.6875 17.9288 27.3278 18.0733C28.7531 18.3524 29.8243 18.8868 30.3219 19.9294C30.6881 20.6996 30.6881 21.5952 30.3218 22.3674C29.8278 23.4061 28.7747 23.9332 27.3371 24.2288C26.7961 24.3401 26.2674 23.9917 26.1562 23.4508C26.0449 22.9098 26.3933 22.3811 26.9342 22.2698C27.804 22.091 28.3744 21.8055 28.5153 21.5093C28.6237 21.2808 28.6237 21.0153 28.5163 20.7895C28.3735 20.4904 27.7983 20.2034 26.9161 20.0303C26.3488 19.9026 25.7653 19.8184 25.17 19.7773C24.619 19.7393 24.2031 19.2619 24.2411 18.7109C24.2791 18.1599 24.7566 17.744 25.3076 17.782ZM7.60534 18.7109C7.64334 19.2619 7.22749 19.7393 6.67651 19.7773C6.22999 19.8081 5.79017 19.8632 5.34725 19.9451L4.90295 20.036C4.04845 20.2033 3.47383 20.4901 3.33118 20.79C3.22312 21.0161 3.22312 21.28 3.33253 21.5095C3.47296 21.8057 4.04279 22.0911 4.91224 22.2698C5.45321 22.3811 5.80157 22.9098 5.69033 23.4508C5.57909 23.9917 5.05037 24.3401 4.5094 24.2288C3.07121 23.9331 2.01818 23.4058 1.52628 22.3683C1.15808 21.596 1.15808 20.6988 1.52589 19.9292C1.98857 18.9565 2.95251 18.426 4.216 18.1373L4.49126 18.0791C5.15897 17.9288 5.84319 17.83 6.53891 17.782C7.08989 17.744 7.56734 18.1599 7.60534 18.7109ZM15.917 4.58334C19.3244 4.58334 22.0613 7.32028 22.0613 10.7277C22.0613 14.1361 19.3246 16.8732 15.917 16.8732C12.5094 16.8732 9.77268 14.1361 9.77268 10.7277C9.77268 7.32028 12.5096 4.58334 15.917 4.58334ZM23.4598 5.83918C26.1487 5.83918 28.3294 8.01892 28.3294 10.7075C28.3294 13.3961 26.1487 15.5758 23.4598 15.5758C22.9075 15.5758 22.4598 15.1281 22.4598 14.5758C22.4598 14.0236 22.9075 13.5758 23.4598 13.5758C25.0443 13.5758 26.3294 12.2913 26.3294 10.7075C26.3294 9.12368 25.0443 7.83918 23.4598 7.83918C22.9075 7.83918 22.4598 7.39146 22.4598 6.83918C22.4598 6.28689 22.9075 5.83918 23.4598 5.83918ZM8.38666 5.83918C8.93894 5.83918 9.38666 6.28689 9.38666 6.83918C9.38666 7.39146 8.93894 7.83918 8.38666 7.83918C6.80217 7.83918 5.5171 9.12368 5.5171 10.7075C5.5171 12.2913 6.80217 13.5758 8.38666 13.5758C8.93894 13.5758 9.38666 14.0236 9.38666 14.5758C9.38666 15.1281 8.93894 15.5758 8.38666 15.5758C5.69779 15.5758 3.5171 13.3961 3.5171 10.7075C3.5171 8.01892 5.69779 5.83918 8.38666 5.83918ZM15.917 6.58334C13.6142 6.58334 11.7727 8.42485 11.7727 10.7277C11.7727 13.0316 13.614 14.8732 15.917 14.8732C18.22 14.8732 20.0613 13.0316 20.0613 10.7277C20.0613 8.42485 18.2198 6.58334 15.917 6.58334Z" fill="#666666"/>
</svg>
