<svg width="32" height="32" viewBox="0 0 32 32" fill="none" xmlns="http://www.w3.org/2000/svg">
<path d="M19.4773 26.2541C19.8727 26.5762 19.9354 27.1617 19.6173 27.562C19.3821 27.858 19.1103 28.1229 18.8223 28.34C17.8521 29.1013 16.6187 29.4465 15.3937 29.3006C14.1677 29.1545 13.0493 28.5283 12.2861 27.5586C11.9699 27.1568 12.0353 26.5715 12.4322 26.2514C12.8292 25.9312 13.4074 25.9975 13.7236 26.3993C14.1839 26.9841 14.8623 27.364 15.6085 27.4528C16.3559 27.5419 17.1077 27.3315 17.7101 26.859C17.8877 26.725 18.0474 26.5693 18.1852 26.3958C18.5034 25.9955 19.0818 25.9321 19.4773 26.2541ZM6.86951 11.9996L6.88592 11.2052C6.89765 10.8654 6.91582 10.55 6.94247 10.2413C7.34206 5.92607 11.4609 2.66666 15.9531 2.66666H16.0482C20.5379 2.66666 24.6579 5.92379 25.0712 10.2471C25.0949 10.522 25.1051 10.7661 25.1081 11.1094L25.1093 12.1598C25.1103 12.2554 25.1119 12.3396 25.1144 12.418L25.1267 12.6797L25.1861 12.9292C25.3737 13.624 25.7034 14.2737 26.155 14.8376L26.3559 15.0739L26.4382 15.1796C26.9797 15.9889 27.2891 16.9307 27.3333 17.945L27.332 18.4827C27.2942 19.6839 26.8532 20.8441 26.0451 21.8109C24.9748 22.9468 23.5245 23.6524 21.9831 23.7943C18.0027 24.2265 13.9867 24.2265 10.0173 23.7954C8.46529 23.6461 7.01926 22.9426 5.90218 21.7631C5.07843 20.7588 4.64056 19.4944 4.66788 18.2166L4.669 17.8989C4.7166 16.9274 5.02405 15.9865 5.55916 15.1736L5.64872 15.0584C6.27367 14.3732 6.70093 13.5347 6.88631 12.6307L6.86626 12.7119L6.86951 11.9996ZM16.0482 4.52712H15.9531C12.3554 4.52712 9.07739 7.12114 8.7729 10.409C8.75732 10.5897 8.74488 10.7761 8.73517 10.9723L8.71376 11.5941L8.70506 12.8198L8.68588 13.0089C8.43259 14.244 7.84972 15.3879 6.99906 16.3205L7.06475 16.2443L6.94727 16.4388C6.72719 16.8353 6.5852 17.266 6.5291 17.691L6.50581 17.945L6.5056 18.2365C6.48758 19.0857 6.77449 19.9142 7.27159 20.5241C8.03842 21.3313 9.07577 21.836 10.2022 21.9444C14.0524 22.3625 17.9369 22.3625 21.8018 21.943C22.9161 21.8403 23.9527 21.3359 24.6779 20.5689C25.2266 19.9107 25.5166 19.0795 25.4954 18.2048L25.4965 17.9868C25.4683 17.3581 25.2681 16.7483 24.9165 16.2229L24.9368 16.2567L24.753 16.0411C24.1191 15.2588 23.6587 14.3513 23.4023 13.3786L23.3158 13.0109L23.2986 12.8873C23.2856 12.7068 23.2781 12.5464 23.274 12.3535L23.2704 11.1473C23.2679 10.8406 23.2596 10.6341 23.241 10.4177C22.9259 7.12099 19.6448 4.52712 16.0482 4.52712Z" fill="#666666"/>
</svg>
