<svg width="24" height="24" viewBox="0 0 24 24" fill="none" xmlns="http://www.w3.org/2000/svg">
<path d="M12 2C17.5228 2 22 6.47716 22 12C22 17.5228 17.5228 22 12 22C6.47716 22 2 17.5228 2 12C2 6.47716 6.47716 2 12 2ZM12 3.39535C7.24779 3.39535 3.39535 7.24779 3.39535 12C3.39535 16.7522 7.24779 20.6047 12 20.6047C16.7522 20.6047 20.6047 16.7522 20.6047 12C20.6047 7.24779 16.7522 3.39535 12 3.39535ZM10.7674 8.04465L10.8715 8.05454C11.0595 8.08299 11.3138 8.16839 11.5393 8.2575C12.5645 8.65585 14.5715 10.0036 15.3385 10.8211L15.5621 11.0598L15.6418 11.152C15.8049 11.3587 15.8903 11.612 15.8903 11.8715C15.8903 12.1158 15.8138 12.357 15.6669 12.5567C15.6275 12.6104 15.5811 12.6617 15.4778 12.772L15.208 13.0528C14.3957 13.8463 12.6377 15.0232 11.6394 15.4432C11.3622 15.5596 10.9636 15.6921 10.7739 15.6963C10.3289 15.7104 9.91032 15.4649 9.70453 15.0673C9.65058 14.9626 9.58327 14.7142 9.5326 14.4811L9.4817 14.2189C9.38887 13.6482 9.33863 12.7822 9.33957 11.8723L9.341 11.5838C9.35018 10.7263 9.40438 9.94479 9.49758 9.43665C9.53469 9.22989 9.6172 8.87387 9.66492 8.75855C9.76873 8.50941 9.95597 8.30819 10.1879 8.18402C10.3671 8.08735 10.5704 8.03789 10.7674 8.04465ZM10.906 9.51163L10.8798 9.63757L10.8459 9.83642C10.7752 10.319 10.7341 11.0688 10.735 11.8723L10.7364 12.151C10.7447 12.8877 10.789 13.5646 10.8585 13.9922L10.907 14.227L11.0989 14.1568C11.9822 13.7852 13.7353 12.5965 14.329 11.9564L14.4093 11.8698L14.1974 11.6515C13.4855 10.9698 11.8167 9.86225 11.0302 9.55667L10.906 9.51163Z" fill="#666666"/>
</svg>
