<svg width="24" height="24" viewBox="0 0 24 24" fill="none" xmlns="http://www.w3.org/2000/svg">
<path d="M16.3588 2C19.7501 2 22 4.41665 22 7.89317V16.1068C22 19.5833 19.7501 22 16.3588 22H7.6412C4.24992 22 2 19.5833 2 16.1068V7.89317C2 4.4199 4.25586 2 7.6412 2H16.3588ZM16.3588 3.39535H7.6412C5.04923 3.39535 3.39535 5.16949 3.39535 7.89317V16.1068C3.39535 18.8341 5.04372 20.6047 7.6412 20.6047H16.3588C18.9563 20.6047 20.6047 18.8341 20.6047 16.1068V7.89317C20.6047 5.16587 18.9563 3.39535 16.3588 3.39535ZM12 7.88587C12.3532 7.88587 12.6451 8.14834 12.6913 8.48887L12.6977 8.58354L12.697 11.293L15.4109 11.2935C15.7962 11.2935 16.1085 11.6058 16.1085 11.9911C16.1085 12.3444 15.8461 12.6363 15.5055 12.6825L15.4109 12.6888L12.697 12.688L12.6977 15.3988C12.6977 15.7841 12.3853 16.0964 12 16.0964C11.6468 16.0964 11.3549 15.834 11.3087 15.4934L11.3023 15.3988L11.302 12.688L8.58915 12.6888C8.20383 12.6888 7.89147 12.3765 7.89147 11.9911C7.89147 11.6379 8.15394 11.346 8.49448 11.2998L8.58915 11.2935L11.302 11.293L11.3023 8.58354C11.3023 8.19823 11.6147 7.88587 12 7.88587Z" fill="#666666"/>
</svg>
