<svg width="32" height="32" viewBox="0 0 32 32" fill="none" xmlns="http://www.w3.org/2000/svg">
<path d="M13.1068 19.7612C15.0318 19.5914 16.9679 19.5914 18.893 19.7612L19.5076 19.8132C20.3483 19.896 21.1831 20.0258 22.0045 20.2012C24.0983 20.6325 25.6187 21.3977 26.2917 22.817C26.7917 23.8729 26.7917 25.0988 26.2915 26.1552C25.6168 27.5781 24.0768 28.3497 22.0201 28.7554L21.397 28.8848C20.5642 29.0446 19.7243 29.1537 18.8901 29.2108C17.3246 29.3441 15.7518 29.3684 14.2347 29.2849C14.0675 29.2849 13.9552 29.2843 13.8563 29.282L13.664 29.2748C13.4301 29.2629 13.2159 29.2384 13.126 29.212C12.0705 29.1403 11.022 28.9875 10.0162 28.7606L9.67503 28.6894C7.77044 28.2662 6.35996 27.5028 5.70753 26.1537C5.46044 25.6302 5.33263 25.058 5.33337 24.4836C5.33122 23.905 5.46007 23.3336 5.71636 22.7998C6.39584 21.4351 7.99227 20.6138 9.98777 20.2028C11.0216 19.9812 12.0698 19.8332 13.1068 19.7612ZM18.7248 21.684C16.9117 21.524 15.0881 21.524 13.2573 21.6854C12.2929 21.7525 11.3343 21.8879 10.3814 22.092C8.90563 22.3961 7.77727 22.9765 7.44161 23.6505C7.31801 23.908 7.25434 24.1904 7.25539 24.4812C7.25503 24.7737 7.31956 25.0626 7.44035 25.3186C7.78557 26.0324 8.85031 26.5658 10.4104 26.8716L10.8804 26.9711C11.6676 27.1272 12.4783 27.2348 13.3793 27.3028C13.4931 27.3256 13.6159 27.3397 13.7616 27.3471L14.2864 27.3561C15.7666 27.4362 17.2506 27.4132 18.7434 27.2863C19.7056 27.2203 20.6614 27.0816 21.626 26.8663L21.926 26.8028C23.296 26.4922 24.2439 25.9838 24.5559 25.3258C24.8076 24.7944 24.8076 24.1774 24.5562 23.6464C24.2223 22.9422 23.1668 22.411 21.6116 22.0906C20.6655 21.8887 19.7065 21.7532 18.7417 21.6853L18.7248 21.684ZM16.0057 2.66666C19.9178 2.66666 23.0891 5.85151 23.0891 9.78022C23.0891 13.7089 19.9178 16.8938 16.0057 16.8938C12.0937 16.8938 8.92237 13.7089 8.92237 9.78022C8.92237 5.85151 12.0937 2.66666 16.0057 2.66666ZM16.0057 4.59688C13.1552 4.59688 10.8444 6.91754 10.8444 9.78022C10.8444 12.6429 13.1552 14.9636 16.0057 14.9636C18.8563 14.9636 21.1671 12.6429 21.1671 9.78022C21.1671 6.91754 18.8563 4.59688 16.0057 4.59688Z" fill="#666666"/>
</svg>
