<svg width="24" height="24" viewBox="0 0 24 24" fill="none" xmlns="http://www.w3.org/2000/svg">
<path d="M21.7046 4.59148L21.668 4.73245L17.0229 20.3719C16.5618 21.9229 14.5395 22.2329 13.6263 20.9534L13.5388 20.8201L9.64301 14.366L3.16747 10.3802C1.791 9.5328 2.01648 7.48605 3.48607 6.93298L3.63716 6.88275L19.2937 2.32702C20.709 1.91742 22.0162 3.18582 21.7046 4.59148ZM19.7846 3.75317L19.7117 3.76759L4.05577 8.32316C3.72987 8.41775 3.64982 8.83646 3.88765 9.05312L3.95377 9.10278L10.078 12.872L15.3233 7.59257C15.5887 7.32541 16.0053 7.29982 16.2996 7.5167L16.384 7.58903C16.6511 7.85441 16.6767 8.27099 16.4598 8.56533L16.3875 8.64969L11.135 13.936L14.823 20.045C14.9986 20.3359 15.4093 20.3069 15.5545 20.0214L15.585 19.9447L20.2303 4.30467C20.3202 4.00306 20.0734 3.72216 19.7846 3.75317Z" fill="#200E32"/>
</svg>
