<svg width="20" height="20" viewBox="0 0 20 20" fill="none" xmlns="http://www.w3.org/2000/svg">
<g clip-path="url(#clip0_102_387)">
<path d="M19.1739 9.71049C19.1739 8.93162 19.112 8.36325 18.9782 7.77383H10.2724V11.2893H15.3825C15.2795 12.1629 14.7232 13.4786 13.4868 14.3627L13.4695 14.4804L16.2221 16.6589L16.4128 16.6783C18.1642 15.0258 19.1739 12.5944 19.1739 9.71049" fill="#4285F4"/>
<path d="M10.2724 18.9729C12.7759 18.9729 14.8776 18.1308 16.4128 16.6783L13.4868 14.3627C12.7038 14.9205 11.6529 15.31 10.2724 15.31C7.82036 15.31 5.73924 13.6575 4.99738 11.3735L4.88864 11.383L2.02644 13.6459L1.98901 13.7522C3.51379 16.8467 6.64581 18.9729 10.2724 18.9729Z" fill="#34A853"/>
<path d="M4.9974 11.3735C4.80165 10.7841 4.68836 10.1525 4.68836 9.50001C4.68836 8.84739 4.80165 8.21589 4.9871 7.62648L4.98191 7.50095L2.08385 5.20163L1.98903 5.24771C1.3606 6.53182 1 7.97383 1 9.50001C1 11.0262 1.3606 12.4681 1.98903 13.7522L4.9974 11.3735" fill="#FBBC05"/>
<path d="M10.2724 3.68994C12.0135 3.68994 13.188 4.45829 13.8577 5.10039L16.4746 2.49007C14.8674 0.963894 12.7759 0.0271301 10.2724 0.0271301C6.64581 0.0271301 3.51379 2.15324 1.98901 5.24769L4.98708 7.62646C5.73924 5.34245 7.82037 3.68994 10.2724 3.68994" fill="#EB4335"/>
</g>
<defs>
<clipPath id="clip0_102_387">
<rect x="1" width="18.1739" height="19" rx="9.08696" fill="white"/>
</clipPath>
</defs>
</svg>
