<svg width="24" height="24" viewBox="0 0 24 24" fill="none" xmlns="http://www.w3.org/2000/svg">
<path d="M12.5732 4.49979C14.9954 4.49979 16.6817 6.03376 16.8613 8.28412L19.5085 7.20187C20.6539 6.73452 21.9036 7.5286 21.9946 8.73527L21.9999 8.87629V15.5153C21.9999 16.7525 20.7925 17.6087 19.6407 17.2369L19.5081 17.1885L16.8613 16.1062C16.6813 18.3551 14.9915 19.8908 12.5732 19.8908H6.3042C3.73909 19.8908 2.0002 18.1717 2.0002 15.7028V8.68779C2.0002 6.21888 3.73909 4.49979 6.3042 4.49979H12.5732ZM12.5732 5.99979H6.3042C4.5637 5.99979 3.5002 7.05117 3.5002 8.68779V15.7028C3.5002 17.3394 4.5637 18.3908 6.3042 18.3908H12.5732C14.3094 18.3908 15.3772 17.3367 15.3772 15.7028L15.377 15.0172C15.3767 15.0066 15.3766 14.9959 15.3768 14.9852L15.3772 8.68779C15.3772 7.05157 14.3131 5.99979 12.5732 5.99979ZM20.1435 8.57138L20.0757 8.59053L16.8772 9.89679V14.4928L20.0753 15.7999C20.2558 15.8735 20.4509 15.7642 20.492 15.5854L20.4999 15.5153V8.87629C20.4999 8.68149 20.3245 8.542 20.1435 8.57138Z" fill="#666666"/>
</svg>
